<svg width="28" height="28" viewBox="0 0 28 28" fill="none" xmlns="http://www.w3.org/2000/svg">
<path fill-rule="evenodd" clip-rule="evenodd" d="M8.25706 12.5055C8.33834 12.424 8.4349 12.3594 8.5412 12.3153C8.64751 12.2711 8.76147 12.2484 8.87656 12.2484C8.99166 12.2484 9.10562 12.2711 9.21192 12.3153C9.31823 12.3594 9.41478 12.424 9.49606 12.5055L14.1266 17.1378L18.7571 12.5055C18.9214 12.3412 19.1442 12.2489 19.3766 12.2489C19.6089 12.2489 19.8318 12.3412 19.9961 12.5055C20.1604 12.6698 20.2527 12.8926 20.2527 13.125C20.2527 13.3574 20.1604 13.5802 19.9961 13.7445L14.7461 18.9945C14.6648 19.076 14.5682 19.1406 14.4619 19.1848C14.3556 19.2289 14.2417 19.2516 14.1266 19.2516C14.0115 19.2516 13.8975 19.2289 13.7912 19.1848C13.6849 19.1406 13.5883 19.076 13.5071 18.9945L8.25706 13.7445C8.17558 13.6632 8.11093 13.5667 8.06682 13.4604C8.02271 13.3541 8 13.2401 8 13.125C8 13.0099 8.02271 12.896 8.06682 12.7896C8.11093 12.6833 8.17558 12.5868 8.25706 12.5055Z" fill="#A3A3A3"/>
<path fill-rule="evenodd" clip-rule="evenodd" d="M14.127 0C14.359 0 14.5816 0.0921874 14.7457 0.256282C14.9098 0.420376 15.002 0.642936 15.002 0.875V16.625C15.002 16.8571 14.9098 17.0796 14.7457 17.2437C14.5816 17.4078 14.359 17.5 14.127 17.5C13.8949 17.5 13.6723 17.4078 13.5082 17.2437C13.3441 17.0796 13.252 16.8571 13.252 16.625V0.875C13.252 0.642936 13.3441 0.420376 13.5082 0.256282C13.6723 0.0921874 13.8949 0 14.127 0Z" fill="#A3A3A3"/>
</svg>
